<svg xmlns="http://www.w3.org/2000/svg" xmlns:xlink="http://www.w3.org/1999/xlink" width="100" height="100" viewBox="0 0 100 100"><rect width="100%" height="100%" fill="#DDDDDD"/><path d="M21.41 54.03L23.36 54.03L23.36 55.42L17.36 55.42L17.36 54.03L19.56 54.03L19.56 47.71Q19.56 47.34 19.58 46.94L19.58 46.94L18.02 48.24Q17.89 48.35 17.76 48.38Q17.63 48.40 17.51 48.38Q17.39 48.36 17.30 48.30Q17.21 48.24 17.17 48.18L17.17 48.18L16.58 47.38L19.89 44.56L21.41 44.56L21.41 54.03ZM32.63 50L32.63 50Q32.63 51.42 32.32 52.46Q32.02 53.51 31.48 54.19Q30.95 54.88 30.22 55.21Q29.48 55.54 28.64 55.54L28.64 55.54Q27.79 55.54 27.07 55.21Q26.34 54.88 25.81 54.19Q25.28 53.51 24.98 52.46Q24.68 51.42 24.68 50L24.68 50Q24.68 48.58 24.98 47.53Q25.28 46.49 25.81 45.81Q26.34 45.13 27.07 44.79Q27.79 44.46 28.64 44.46L28.64 44.46Q29.48 44.46 30.22 44.79Q30.95 45.13 31.48 45.81Q32.02 46.49 32.32 47.53Q32.63 48.58 32.63 50ZM30.71 50L30.71 50Q30.71 48.82 30.54 48.05Q30.37 47.28 30.08 46.82Q29.79 46.36 29.42 46.18Q29.04 45.99 28.64 45.99L28.64 45.99Q28.24 45.99 27.87 46.18Q27.50 46.36 27.21 46.82Q26.93 47.28 26.76 48.05Q26.59 48.82 26.59 50L26.59 50Q26.59 51.18 26.76 51.95Q26.93 52.72 27.21 53.18Q27.50 53.64 27.87 53.82Q28.24 54.01 28.64 54.01L28.64 54.01Q29.04 54.01 29.42 53.82Q29.79 53.64 30.08 53.18Q30.37 52.72 30.54 51.95Q30.71 51.18 30.71 50ZM41.33 50L41.33 50Q41.33 51.42 41.02 52.46Q40.72 53.51 40.18 54.19Q39.65 54.88 38.91 55.21Q38.18 55.54 37.34 55.54L37.34 55.54Q36.49 55.54 35.77 55.21Q35.04 54.88 34.51 54.19Q33.98 53.51 33.68 52.46Q33.38 51.42 33.38 50L33.38 50Q33.38 48.58 33.68 47.53Q33.98 46.49 34.51 45.81Q35.04 45.13 35.77 44.79Q36.49 44.46 37.34 44.46L37.34 44.46Q38.18 44.46 38.91 44.79Q39.65 45.13 40.18 45.81Q40.72 46.49 41.02 47.53Q41.33 48.58 41.33 50ZM39.41 50L39.41 50Q39.41 48.82 39.24 48.05Q39.07 47.28 38.78 46.82Q38.49 46.36 38.12 46.18Q37.74 45.99 37.34 45.99L37.34 45.99Q36.94 45.99 36.57 46.18Q36.20 46.36 35.91 46.82Q35.63 47.28 35.46 48.05Q35.29 48.82 35.29 50L35.29 50Q35.29 51.18 35.46 51.95Q35.63 52.72 35.91 53.18Q36.20 53.64 36.57 53.82Q36.94 54.01 37.34 54.01L37.34 54.01Q37.74 54.01 38.12 53.82Q38.49 53.64 38.78 53.18Q39.07 52.72 39.24 51.95Q39.41 51.18 39.41 50ZM53.24 52.94L52.25 53.91L49.71 51.37L47.15 53.92L46.16 52.95L48.73 50.38L46.28 47.94L47.26 46.96L49.70 49.41L52.13 46.98L53.12 47.95L50.69 50.39L53.24 52.94ZM63.50 54.03L65.45 54.03L65.45 55.42L59.45 55.42L59.45 54.03L61.65 54.03L61.65 47.71Q61.65 47.34 61.67 46.94L61.67 46.94L60.11 48.24Q59.98 48.35 59.85 48.38Q59.72 48.40 59.60 48.38Q59.48 48.36 59.39 48.30Q59.30 48.24 59.26 48.18L59.26 48.18L58.67 47.38L61.98 44.56L63.50 44.56L63.50 54.03ZM74.72 50L74.72 50Q74.72 51.42 74.41 52.46Q74.11 53.51 73.57 54.19Q73.04 54.88 72.30 55.21Q71.57 55.54 70.73 55.54L70.73 55.54Q69.88 55.54 69.16 55.21Q68.43 54.88 67.90 54.19Q67.37 53.51 67.07 52.46Q66.77 51.42 66.77 50L66.77 50Q66.77 48.58 67.07 47.53Q67.37 46.49 67.90 45.81Q68.43 45.13 69.16 44.79Q69.88 44.46 70.73 44.46L70.73 44.46Q71.57 44.46 72.30 44.79Q73.04 45.13 73.57 45.81Q74.11 46.49 74.41 47.53Q74.72 48.58 74.72 50ZM72.80 50L72.80 50Q72.80 48.82 72.63 48.05Q72.46 47.28 72.17 46.82Q71.88 46.36 71.51 46.18Q71.13 45.99 70.73 45.99L70.73 45.99Q70.33 45.99 69.96 46.18Q69.59 46.36 69.30 46.82Q69.02 47.28 68.85 48.05Q68.68 48.82 68.68 50L68.68 50Q68.68 51.18 68.85 51.95Q69.02 52.72 69.30 53.18Q69.59 53.64 69.96 53.82Q70.33 54.01 70.73 54.01L70.73 54.01Q71.13 54.01 71.51 53.82Q71.88 53.64 72.17 53.18Q72.46 52.72 72.63 51.95Q72.80 51.18 72.80 50ZM83.42 50L83.42 50Q83.42 51.42 83.11 52.46Q82.81 53.51 82.27 54.19Q81.74 54.88 81.00 55.21Q80.27 55.54 79.43 55.54L79.43 55.54Q78.58 55.54 77.86 55.21Q77.13 54.88 76.60 54.19Q76.07 53.51 75.77 52.46Q75.47 51.42 75.47 50L75.47 50Q75.47 48.58 75.77 47.53Q76.07 46.49 76.60 45.81Q77.13 45.13 77.86 44.79Q78.58 44.46 79.43 44.46L79.43 44.46Q80.27 44.46 81.00 44.79Q81.74 45.13 82.27 45.81Q82.81 46.49 83.11 47.53Q83.42 48.58 83.42 50ZM81.50 50L81.50 50Q81.50 48.82 81.33 48.05Q81.16 47.28 80.87 46.82Q80.58 46.36 80.21 46.18Q79.83 45.99 79.43 45.99L79.43 45.99Q79.03 45.99 78.66 46.18Q78.29 46.36 78.00 46.82Q77.72 47.28 77.55 48.05Q77.38 48.82 77.38 50L77.38 50Q77.38 51.18 77.55 51.95Q77.72 52.72 78.00 53.18Q78.29 53.64 78.66 53.82Q79.03 54.01 79.43 54.01L79.43 54.01Q79.83 54.01 80.21 53.82Q80.58 53.64 80.87 53.18Q81.16 52.72 81.33 51.95Q81.50 51.18 81.50 50Z" fill="#999999"/></svg>