<svg xmlns="http://www.w3.org/2000/svg" xmlns:xlink="http://www.w3.org/1999/xlink" width="360" height="300" viewBox="0 0 360 300"><rect width="100%" height="100%" fill="#DDDDDD"/><path d="M90.97 135.43L96.50 135.43L96.50 165.08L90.97 165.08L90.97 152.12L77.05 152.12L77.05 165.08L71.51 165.08L71.51 135.43L77.05 135.43L77.05 148.19L90.97 148.19L90.97 135.43ZM106.30 152.14L115.86 152.14Q115.86 151.16 115.58 150.29Q115.30 149.42 114.75 148.76Q114.19 148.10 113.34 147.72Q112.49 147.35 111.37 147.35L111.37 147.35Q109.17 147.35 107.91 148.60Q106.65 149.85 106.30 152.14L106.30 152.14ZM119.22 155.20L106.20 155.20Q106.32 156.82 106.77 157.99Q107.22 159.17 107.96 159.94Q108.70 160.71 109.72 161.09Q110.73 161.47 111.96 161.47L111.96 161.47Q113.19 161.47 114.08 161.18Q114.97 160.90 115.64 160.55Q116.31 160.20 116.81 159.91Q117.31 159.62 117.78 159.62L117.78 159.62Q118.42 159.62 118.73 160.10L118.73 160.10L120.18 161.94Q119.34 162.93 118.29 163.59Q117.25 164.26 116.11 164.66Q114.97 165.06 113.80 165.22Q112.62 165.39 111.51 165.39L111.51 165.39Q109.32 165.39 107.43 164.66Q105.54 163.93 104.15 162.50Q102.76 161.08 101.96 158.98Q101.16 156.88 101.16 154.11L101.16 154.11Q101.16 151.96 101.85 150.06Q102.55 148.17 103.85 146.76Q105.15 145.36 107.03 144.54Q108.91 143.72 111.26 143.72L111.26 143.72Q113.25 143.72 114.93 144.35Q116.61 144.99 117.82 146.21Q119.03 147.43 119.72 149.20Q120.41 150.97 120.41 153.25L120.41 153.25Q120.41 154.40 120.16 154.80Q119.91 155.20 119.22 155.20L119.22 155.20ZM124.26 134.61L129.32 134.61L129.32 165.08L124.26 165.08L124.26 134.61ZM134.45 134.61L139.51 134.61L139.51 165.08L134.45 165.08L134.45 134.61ZM153.88 143.72L153.88 143.72Q156.22 143.72 158.14 144.48Q160.05 145.23 161.42 146.63Q162.78 148.02 163.52 150.03Q164.26 152.04 164.26 154.52L164.26 154.52Q164.26 157.02 163.52 159.03Q162.78 161.04 161.42 162.45Q160.05 163.87 158.14 164.63Q156.22 165.39 153.88 165.39L153.88 165.39Q151.53 165.39 149.60 164.63Q147.67 163.87 146.31 162.45Q144.94 161.04 144.20 159.03Q143.45 157.02 143.45 154.52L143.45 154.52Q143.45 152.04 144.20 150.03Q144.94 148.02 146.31 146.63Q147.67 145.23 149.60 144.48Q151.53 143.72 153.88 143.72ZM153.88 161.49L153.88 161.49Q156.51 161.49 157.77 159.73Q159.03 157.96 159.03 154.56L159.03 154.56Q159.03 151.16 157.77 149.37Q156.51 147.59 153.88 147.59L153.88 147.59Q151.22 147.59 149.94 149.38Q148.66 151.18 148.66 154.56L148.66 154.56Q148.66 157.94 149.94 159.72Q151.22 161.49 153.88 161.49ZM214.01 135.43L218.33 135.43L209.13 165.08L204.15 165.08L197.67 144.82Q197.40 144.09 197.18 143.02L197.18 143.02Q197.06 143.53 196.93 143.98Q196.81 144.43 196.67 144.82L196.67 144.82L190.13 165.08L185.12 165.08L175.94 135.43L180.55 135.43Q181.27 135.43 181.75 135.77Q182.23 136.11 182.40 136.69L182.40 136.69L187.44 154.42Q187.61 155.07 187.76 155.84Q187.91 156.61 188.08 157.45L188.08 157.45Q188.24 156.59 188.44 155.83Q188.63 155.07 188.86 154.42L188.86 154.42L194.68 136.69Q194.84 136.21 195.32 135.82Q195.81 135.43 196.50 135.43L196.50 135.43L198.12 135.43Q198.84 135.43 199.29 135.78Q199.74 136.13 199.97 136.69L199.97 136.69L205.77 154.42Q206.20 155.69 206.55 157.35L206.55 157.35Q206.81 155.73 207.14 154.42L207.14 154.42L212.18 136.69Q212.31 136.17 212.81 135.80Q213.31 135.43 214.01 135.43L214.01 135.43ZM230.49 143.72L230.49 143.72Q232.83 143.72 234.75 144.48Q236.66 145.23 238.03 146.63Q239.39 148.02 240.13 150.03Q240.86 152.04 240.86 154.52L240.86 154.52Q240.86 157.02 240.13 159.03Q239.39 161.04 238.03 162.45Q236.66 163.87 234.75 164.63Q232.83 165.39 230.49 165.39L230.49 165.39Q228.13 165.39 226.21 164.63Q224.28 163.87 222.92 162.45Q221.55 161.04 220.81 159.03Q220.06 157.02 220.06 154.52L220.06 154.52Q220.06 152.04 220.81 150.03Q221.55 148.02 222.92 146.63Q224.28 145.23 226.21 144.48Q228.13 143.72 230.49 143.72ZM230.49 161.49L230.49 161.49Q233.12 161.49 234.38 159.73Q235.64 157.96 235.64 154.56L235.64 154.56Q235.64 151.16 234.38 149.37Q233.12 147.59 230.49 147.59L230.49 147.59Q227.83 147.59 226.55 149.38Q225.26 151.18 225.26 154.56L225.26 154.56Q225.26 157.94 226.55 159.72Q227.83 161.49 230.49 161.49ZM249.21 145.32L249.52 147.69Q250.50 145.81 251.85 144.73Q253.21 143.66 255.05 143.66L255.05 143.66Q256.51 143.66 257.39 144.29L257.39 144.29L257.06 148.08Q256.96 148.45 256.76 148.61Q256.57 148.76 256.24 148.76L256.24 148.76Q255.93 148.76 255.33 148.66Q254.72 148.55 254.15 148.55L254.15 148.55Q253.31 148.55 252.65 148.80Q252.00 149.05 251.47 149.51Q250.95 149.97 250.55 150.63Q250.15 151.28 249.80 152.12L249.80 152.12L249.80 165.08L244.74 165.08L244.74 144.04L247.71 144.04Q248.49 144.04 248.80 144.32Q249.11 144.60 249.21 145.32L249.21 145.32ZM260.09 134.61L265.16 134.61L265.16 165.08L260.09 165.08L260.09 134.61ZM283.42 158.85L283.42 149.42Q282.56 148.37 281.55 147.94Q280.53 147.51 279.36 147.51L279.36 147.51Q278.22 147.51 277.29 147.94Q276.37 148.37 275.71 149.24Q275.06 150.11 274.71 151.46Q274.36 152.80 274.36 154.62L274.36 154.62Q274.36 156.47 274.66 157.75Q274.96 159.03 275.51 159.84Q276.06 160.65 276.86 161.01Q277.66 161.37 278.65 161.37L278.65 161.37Q280.22 161.37 281.33 160.71Q282.44 160.06 283.42 158.85L283.42 158.85ZM283.42 134.61L288.49 134.61L288.49 165.08L285.39 165.08Q284.39 165.08 284.12 164.16L284.12 164.16L283.69 162.13Q282.42 163.58 280.77 164.48Q279.12 165.39 276.92 165.39L276.92 165.39Q275.20 165.39 273.77 164.67Q272.33 163.95 271.30 162.59Q270.26 161.22 269.70 159.21Q269.13 157.21 269.13 154.62L269.13 154.62Q269.13 152.29 269.77 150.28Q270.40 148.27 271.59 146.79Q272.78 145.32 274.44 144.49Q276.10 143.66 278.17 143.66L278.17 143.66Q279.94 143.66 281.19 144.21Q282.44 144.76 283.42 145.71L283.42 145.71L283.42 134.61Z" fill="#999999"/></svg>